<svg id="Layer_1" data-name="Layer 1" xmlns="http://www.w3.org/2000/svg" viewBox="0 0 698 517"><defs><style>.cls-1{font-size:18px;font-family:Helvetica-Bold, Helvetica;font-weight:700;}.cls-2{font-size:12px;font-family:MyriadPro-Regular, Myriad Pro;}.cls-3{letter-spacing:-0.01em;}.cls-4{letter-spacing:-0.01em;}.cls-5{letter-spacing:0em;}.cls-6{letter-spacing:0em;}.cls-7{letter-spacing:-0.01em;}.cls-8{letter-spacing:-0.02em;}.cls-9{letter-spacing:-0.01em;}.cls-10{letter-spacing:-0.03em;}.cls-11{letter-spacing:-0.02em;}.cls-12{letter-spacing:0em;}.cls-13{letter-spacing:-0.01em;}.cls-14{letter-spacing:0em;}.cls-15{letter-spacing:0em;}.cls-16{letter-spacing:0.01em;}.cls-17{letter-spacing:0.01em;}.cls-18{letter-spacing:0.01em;}.cls-19{letter-spacing:-0.03em;}.cls-20{letter-spacing:-0.04em;}.cls-21{letter-spacing:-0.01em;}.cls-22{letter-spacing:0.01em;}.cls-23{letter-spacing:0em;}.cls-24{letter-spacing:-0.01em;}</style></defs><title>phpBeerErd</title><path d="M475,356v33H307V356H475m2-2H305v37H477V354Z" transform="translate(-60 -19)"/><path d="M476.25,390.75v35.5H305.75v-35.5h170.5M477,390H305v37H477V390Z" transform="translate(-60 -19)"/><text class="cls-1" transform="translate(312.49 356.91)">vote</text><text class="cls-2" transform="translate(303.86 393.02)"><tspan class="cls-3">v</tspan><tspan x="5.65" y="0">o</tspan><tspan class="cls-4" x="12.24" y="0">t</tspan><tspan class="cls-5" x="16.14" y="0">e</tspan><tspan class="cls-6" x="22.15" y="0">B</tspan><tspan x="28.7" y="0">eerId</tspan></text><path d="M476.25,427.75v35.5H305.75v-35.5h170.5M477,427H305v37H477V427Z" transform="translate(-60 -19)"/><text class="cls-2" transform="translate(299.25 430.02)"><tspan class="cls-3">v</tspan><tspan x="5.65" y="0">o</tspan><tspan class="cls-7" x="12.24" y="0">t</tspan><tspan class="cls-5" x="16.14" y="0">e</tspan><tspan class="cls-8" x="22.15" y="0">P</tspan><tspan class="cls-9" x="28.34" y="0">r</tspan><tspan x="32.15" y="0">ofileId</tspan></text><path d="M476.25,464.75v35.5H305.75v-35.5h170.5M477,464H305v37H477V464Z" transform="translate(-60 -19)"/><text class="cls-2" transform="translate(306.15 467.02)"><tspan class="cls-3">v</tspan><tspan x="5.65" y="0">o</tspan><tspan class="cls-4" x="12.24" y="0">t</tspan><tspan class="cls-5" x="16.14" y="0">e</tspan><tspan class="cls-10" x="22.15" y="0">V</tspan><tspan class="cls-5" x="28.45" y="0">alue</tspan></text><path d="M474,21V54H306V21H474m2-2H304V56H476V19Z" transform="translate(-60 -19)"/><path d="M475.25,55.75v35.5H304.75V55.75h170.5M476,55H304V92H476V55Z" transform="translate(-60 -19)"/><text class="cls-1" transform="translate(310.99 21.75) rotate(0.49)">beer</text><text class="cls-2" transform="translate(313.79 58.02)">beerId</text><path d="M475.25,92.75v35.5H304.75V92.75h170.5M476,92H304v37H476V92Z" transform="translate(-60 -19)"/><text class="cls-2" transform="translate(297.94 95.02)">beer<tspan class="cls-11" x="22.78" y="0">P</tspan><tspan class="cls-3" x="28.97" y="0">r</tspan><tspan class="cls-5" x="32.77" y="0">ofileId</tspan></text><path d="M475.25,129.75v35.5H304.75v-35.5h170.5M476,129H304v37H476V129Z" transform="translate(-60 -19)"/><text class="cls-2" transform="translate(308.7 132.02)">beer<tspan class="cls-12" x="22.78" y="0">A</tspan><tspan class="cls-13" x="30.08" y="0">b</tspan><tspan x="36.83" y="0">v</tspan></text><path d="M475.25,166.75v35.5H304.75v-35.5h170.5M476,166H304v37H476V166Z" transform="translate(-60 -19)"/><text class="cls-2" transform="translate(289.7 169.02)">beer<tspan class="cls-14" x="22.78" y="0">D</tspan><tspan x="30.82" y="0">esc</tspan><tspan class="cls-14" x="46.96" y="0">r</tspan><tspan class="cls-15" x="50.93" y="0">iption</tspan></text><path d="M475.25,203.75v35.5H304.75v-35.5h170.5M476,203H304v37H476V203Z" transform="translate(-60 -19)"/><text class="cls-2" transform="translate(310.4 206.02)">beer<tspan class="cls-16" x="22.78" y="0">I</tspan><tspan x="25.76" y="0">bu</tspan></text><path d="M475.25,240.75v35.5H304.75v-35.5h170.5M476,240H304v37H476V240Z" transform="translate(-60 -19)"/><text class="cls-2" transform="translate(303.76 243.02)">beerName</text><path d="M718,21V54H550V21H718m2-2H548V56H720V19Z" transform="translate(-60 -19)"/><path d="M719.25,55.75v35.5H548.75V55.75h170.5M720,55H548V92H720V55Z" transform="translate(-60 -19)"/><text class="cls-1" transform="translate(533.48 21.91)">beerStyle</text><text class="cls-2" transform="translate(534.32 58.02)">beer<tspan class="cls-12" x="22.78" y="0">S</tspan><tspan class="cls-17" x="28.66" y="0">t</tspan><tspan x="32.74" y="0">yle</tspan><tspan class="cls-14" x="47.23" y="0">B</tspan><tspan x="53.78" y="0">eerId</tspan></text><path d="M719.25,92.75v35.5H548.75V92.75h170.5M720,92H548v37H720V92Z" transform="translate(-60 -19)"/><text class="cls-2" transform="translate(533.34 95.02)">beer<tspan class="cls-12" x="22.78" y="0">S</tspan><tspan class="cls-18" x="28.66" y="0">t</tspan><tspan x="32.74" y="0">yle</tspan><tspan class="cls-12" x="47.23" y="0">S</tspan><tspan class="cls-17" x="53.11" y="0">t</tspan><tspan x="57.19" y="0">yleId</tspan></text><path d="M721,217v33H553V217H721m2-2H551v37H723V215Z" transform="translate(-60 -19)"/><path d="M722.25,251.75v35.5H551.75v-35.5h170.5M723,251H551v37H723V251Z" transform="translate(-60 -19)"/><text class="cls-1" transform="translate(556.49 217.91)">style</text><text class="cls-2" transform="translate(560.52 254.02)">s<tspan class="cls-18" x="4.75" y="0">t</tspan><tspan x="8.83" y="0">yleId</tspan></text><path d="M722.25,288.75v35.5H551.75v-35.5h170.5M723,288H551v37H723V288Z" transform="translate(-60 -19)"/><text class="cls-2" transform="translate(553.55 291.02)">s<tspan class="cls-18" x="4.75" y="0">t</tspan><tspan x="8.83" y="0">yl</tspan><tspan class="cls-19" x="17.32" y="0">e</tspan><tspan class="cls-20" x="22.93" y="0">T</tspan><tspan x="28.42" y="0">ype</tspan></text><path d="M230,21V54H62V21H230m2-2H60V56H232V19Z" transform="translate(-60 -19)"/><path d="M231.25,55.75v35.5H60.75V55.75h170.5M232,55H60V92H232V55Z" transform="translate(-60 -19)"/><text class="cls-1" transform="translate(58.5 21.91)">profile</text><text class="cls-2" transform="translate(65.01 58.02)">p<tspan class="cls-9" x="6.83" y="0">r</tspan><tspan x="10.63" y="0">ofileId</tspan></text><path d="M231.25,92.75v35.5H60.75V92.75h170.5M232,92H60v37H232V92Z" transform="translate(-60 -19)"/><text class="cls-2" transform="translate(54.18 95.02)">p<tspan class="cls-9" x="6.83" y="0">r</tspan><tspan x="10.63" y="0">ofile</tspan><tspan class="cls-12" x="32.34" y="0">A</tspan><tspan class="cls-5" x="39.65" y="0">bout</tspan></text><path d="M231.25,129.75v35.5H60.75v-35.5h170.5M232,129H60v37H232V129Z" transform="translate(-60 -19)"/><text class="cls-2" transform="translate(36.15 132.02)">p<tspan class="cls-9" x="6.83" y="0">r</tspan><tspan x="10.63" y="0">ofile</tspan><tspan class="cls-21" x="32.34" y="0">A</tspan><tspan x="39.54" y="0">dd</tspan><tspan class="cls-3" x="53.08" y="0">r</tspan><tspan class="cls-5" x="56.88" y="0">essLine1</tspan></text><path d="M231.25,166.75v35.5H60.75v-35.5h170.5M232,166H60v37H232V166Z" transform="translate(-60 -19)"/><text class="cls-2" transform="translate(36.15 169.02)">p<tspan class="cls-9" x="6.83" y="0">r</tspan><tspan x="10.63" y="0">ofile</tspan><tspan class="cls-21" x="32.34" y="0">A</tspan><tspan x="39.54" y="0">dd</tspan><tspan class="cls-3" x="53.08" y="0">r</tspan><tspan class="cls-5" x="56.88" y="0">essLine2</tspan></text><path d="M231.25,203.75v35.5H60.75v-35.5h170.5M232,203H60v37H232V203Z" transform="translate(-60 -19)"/><text class="cls-2" transform="translate(60.1 206.02)">p<tspan class="cls-9" x="6.83" y="0">r</tspan><tspan x="10.63" y="0">ofile</tspan><tspan class="cls-12" x="32.34" y="0">C</tspan><tspan class="cls-15" x="39.26" y="0">i</tspan><tspan class="cls-22" x="42.07" y="0">t</tspan><tspan x="46.15" y="0">y</tspan></text><path d="M231.25,240.75v35.5H60.75v-35.5h170.5M232,240H60v37H232V240Z" transform="translate(-60 -19)"/><text class="cls-2" transform="translate(56.16 243.02)">p<tspan class="cls-9" x="6.83" y="0">r</tspan><tspan x="10.63" y="0">ofileEmail</tspan></text><path d="M231.25,277.75v35.5H60.75v-35.5h170.5M232,277H60v37H232V277Z" transform="translate(-60 -19)"/><text class="cls-2" transform="translate(57.32 280.02)">p<tspan class="cls-9" x="6.83" y="0">r</tspan><tspan x="10.63" y="0">ofileHash</tspan></text><path d="M231.25,314.75v35.5H60.75v-35.5h170.5M232,314H60v37H232V314Z" transform="translate(-60 -19)"/><text class="cls-2" transform="translate(54.08 317.02)">p<tspan class="cls-9" x="6.83" y="0">r</tspan><tspan x="10.63" y="0">ofile</tspan><tspan class="cls-16" x="32.34" y="0">I</tspan><tspan x="35.33" y="0">mage</tspan></text><path d="M231.25,351.75v35.5H60.75v-35.5h170.5M232,351H60v37H232V351Z" transform="translate(-60 -19)"/><text class="cls-2" transform="translate(54.98 354.02)">p<tspan class="cls-9" x="6.83" y="0">r</tspan><tspan x="10.63" y="0">ofileName</tspan></text><path d="M231.25,388.75v35.5H60.75v-35.5h170.5M232,388H60v37H232V388Z" transform="translate(-60 -19)"/><text class="cls-2" transform="translate(57.08 391.02)">p<tspan class="cls-9" x="6.83" y="0">r</tspan><tspan x="10.63" y="0">ofile</tspan><tspan class="cls-12" x="32.34" y="0">S</tspan><tspan x="38.22" y="0">t</tspan><tspan class="cls-23" x="42.19" y="0">a</tspan><tspan class="cls-4" x="47.93" y="0">t</tspan><tspan x="51.83" y="0">e</tspan></text><path d="M231.25,425.75v35.5H60.75v-35.5h170.5M232,425H60v37H232V425Z" transform="translate(-60 -19)"/><text class="cls-2" transform="translate(44.38 428.02)">p<tspan class="cls-9" x="6.83" y="0">r</tspan><tspan x="10.63" y="0">ofile</tspan><tspan class="cls-4" x="32.34" y="0">U</tspan><tspan x="40.03" y="0">se</tspan><tspan class="cls-6" x="50.8" y="0">r</tspan><tspan x="54.77" y="0">name</tspan></text><path d="M231.25,462.75v35.5H60.75v-35.5h170.5M232,462H60v37H232V462Z" transform="translate(-60 -19)"/><text class="cls-2" transform="translate(46.74 465.02)">p<tspan class="cls-9" x="6.83" y="0">r</tspan><tspan x="10.63" y="0">ofile</tspan><tspan class="cls-4" x="32.34" y="0">U</tspan><tspan x="40.03" y="0">se</tspan><tspan class="cls-24" x="50.8" y="0">r</tspan><tspan class="cls-20" x="54.55" y="0">T</tspan><tspan x="60.04" y="0">ype</tspan></text><path d="M231.25,499.75v35.5H60.75v-35.5h170.5M232,499H60v37H232V499Z" transform="translate(-60 -19)"/><text class="cls-2" transform="translate(61.69 502.02)">p<tspan class="cls-9" x="6.83" y="0">r</tspan><tspan x="10.63" y="0">ofileZip</tspan></text><path d="M305,447c-9.54,0-19.08-19.31-29.14-59-7.85-31-15.91-74.14-24-128.31C238.17,167.44,229.09,74,229,73.1a1,1,0,0,1,.35-.86,1,1,0,0,1,.89-.21c1.18.29,28.76,7.36,28.76,22,0,13.33,22.77,16.07,45,17a1,1,0,0,1-.08,2c-24.39-1-47-4-47-19,0-11.34-20.32-18-25.86-19.65,1.2,12.2,10,99.13,22.73,185C276.7,412.79,294.27,445,305,445a1,1,0,0,1,0,2Z" transform="translate(-60 -19)"/><path d="M478.25,417.25a1,1,0,0,1,0-2c19,0,29.25-15.07,29.25-29.25V105.5c0-16.68-33.6-33.44-33.94-33.6a1,1,0,0,1-.53-1.13,1,1,0,0,1,1-.77l73,1a1,1,0,0,1,1,1,1,1,0,0,1-1,1l-68.85-.94c9,5,31.36,18.84,31.36,33.44V386C509.5,401.15,498.55,417.25,478.25,417.25Z" transform="translate(-60 -19)"/><path d="M721,234v-2c16.93,0,35-9.2,35-35V152c0-24.42-14.21-39-38-39v-2c24.67,0,40,15.71,40,41v45C758,219.48,743.47,234,721,234Z" transform="translate(-60 -19)"/></svg>