<?xml version="1.0" encoding="utf-8"?>
<!-- Generator: Adobe Illustrator 22.1.0, SVG Export Plug-In . SVG Version: 6.00 Build 0)  -->
<svg version="1.1" xmlns="http://www.w3.org/2000/svg" xmlns:xlink="http://www.w3.org/1999/xlink" x="0px" y="0px"
	 viewBox="0 0 771 564" style="enable-background:new 0 0 771 564;" xml:space="preserve">
<style type="text/css">
	.st0{font-family:'Helvetica-Bold';}
	.st1{font-size:18px;}
	.st2{font-family:'MyriadPro-Regular';}
	.st3{font-size:12px;}
	.st4{font-size:14px;}
</style>
<g id="Layer_1">
	<g>
		<g>
			<path d="M475,356v33H307v-33H475 M477,354H305v37h172V354L477,354z"/>
		</g>
		<g>
			<path d="M476.2,390.8v35.5H305.8v-35.5H476.2 M477,390H305v37h172V390L477,390z"/>
		</g>
		<text transform="matrix(1 0 0 1 372.4949 375.9102)" class="st0 st1">vote</text>
		<text transform="matrix(1 0 0 1 363.7839 412.022)" class="st2 st3">voteBeerId</text>
		<g>
			<path d="M476.2,427.8v35.5H305.8v-35.5H476.2 M477,427H305v37h172V427L477,427z"/>
		</g>
		<text transform="matrix(1 0 0 1 359.0022 449.022)" class="st2 st3">voteProfileId</text>
		<g>
			<path d="M476.2,464.8v35.5H305.8v-35.5H476.2 M477,464H305v37h172V464L477,464z"/>
		</g>
		<text transform="matrix(1 0 0 1 365.8601 486.022)" class="st2 st3">voteValue</text>
	</g>
	<g>
		<g>
			<path d="M474,21v33H306V21H474 M476,19H304v37h172V19L476,19z"/>
		</g>
		<g>
			<path d="M475.2,55.8v35.5H304.8V55.8H475.2 M476,55H304v37h172V55L476,55z"/>
		</g>
		<text transform="matrix(1 8.490001e-03 -8.490001e-03 1 370.9229 40.7535)" class="st0 st1">beer</text>
		<text transform="matrix(1 0 0 1 373.7942 77.022)" class="st2 st3">beerId</text>
		<g>
			<path d="M475.2,92.8v35.5H304.8V92.8H475.2 M476,92H304v37h172V92L476,92z"/>
		</g>
		<text transform="matrix(1 0 0 1 357.7864 114.022)" class="st2 st3">beerProfileId</text>
		<g>
			<path d="M475.2,129.8v35.5H304.8v-35.5H475.2 M476,129H304v37h172V129L476,129z"/>
		</g>
		<text transform="matrix(1 0 0 1 368.6399 151.022)" class="st2 st3">beerAbv</text>
		<g>
			<path d="M475.2,166.8v35.5H304.8v-35.5H475.2 M476,166H304v37h172V166L476,166z"/>
		</g>
		<text transform="matrix(1 0 0 1 349.7522 188.022)" class="st2 st3">beerDescription</text>
		<g>
			<path d="M475.2,203.8v35.5H304.8v-35.5H475.2 M476,203H304v37h172V203L476,203z"/>
		</g>
		<text transform="matrix(1 0 0 1 370.4583 225.022)" class="st2 st3">beerIbu</text>
		<g>
			<path d="M475.2,240.8v35.5H304.8v-35.5H475.2 M476,240H304v37h172V240L476,240z"/>
		</g>
		<text transform="matrix(1 0 0 1 363.762 262.022)" class="st2 st3">beerName</text>
	</g>
	<g>
		<g>
			<path d="M718,21v33H550V21H718 M720,19H548v37h172V19L720,19z"/>
		</g>
		<g>
			<path d="M719.2,55.8v35.5H548.8V55.8H719.2 M720,55H548v37h172V55L720,55z"/>
		</g>
		<text transform="matrix(1 0 0 1 593.4783 40.9102)" class="st0 st1">beerStyle</text>
		<text transform="matrix(1 0 0 1 594.3762 77.022)" class="st2 st3">beerStyleBeerId</text>
		<g>
			<path d="M719.2,92.8v35.5H548.8V92.8H719.2 M720,92H548v37h172V92L720,92z"/>
		</g>
		<text transform="matrix(1 0 0 1 593.4104 114.022)" class="st2 st3">beerStyleStyleId</text>
	</g>
	<g>
		<g>
			<path d="M721,217v33H553v-33H721 M723,215H551v37h172V215L723,215z"/>
		</g>
		<g>
			<path d="M722.2,251.8v35.5H551.8v-35.5H722.2 M723,251H551v37h172V251L723,251z"/>
		</g>
		<text transform="matrix(1 0 0 1 616.4866 236.9102)" class="st0 st1">style</text>
		<text transform="matrix(1 0 0 1 620.572 273.022)" class="st2 st3">styleId</text>
		<g>
			<path d="M722.2,288.8v35.5H551.8v-35.5H722.2 M723,288H551v37h172V288L723,288z"/>
		</g>
		<text transform="matrix(1 0 0 1 613.1624 310.022)" class="st2 st3">styleType</text>
	</g>
	<g>
		<g>
			<path d="M230,21v33H62V21H230 M232,19H60v37h172V19L232,19z"/>
		</g>
		<g>
			<path d="M231.2,55.8v35.5H60.8V55.8H231.2 M232,55H60v37h172V55L232,55z"/>
		</g>
		<text transform="matrix(1 0 0 1 118.4993 40.9102)" class="st0 st1">profile</text>
		<text transform="matrix(1 0 0 1 124.9519 77.022)" class="st2 st3">profileId</text>
		<g>
			<path d="M231.2,92.8v35.5H60.8V92.8H231.2 M232,92H60v37h172V92L232,92z"/>
		</g>
		<text transform="matrix(1 0 0 1 114.0984 114.022)" class="st2 st3">profileAbout</text>
		<g>
			<path d="M231.2,129.8v35.5H60.8v-35.5H231.2 M232,129H60v37h172V129L232,129z"/>
		</g>
		<text transform="matrix(1 0 0 1 95.9607 151.022)" class="st2 st3">profileAddressLine1</text>
		<g>
			<path d="M231.2,166.8v35.5H60.8v-35.5H231.2 M232,166H60v37h172V166L232,166z"/>
		</g>
		<text transform="matrix(1 0 0 1 95.9607 188.022)" class="st2 st3">profileAddressLine2</text>
		<g>
			<path d="M231.2,203.8v35.5H60.8v-35.5H231.2 M232,203H60v37h172V203L232,203z"/>
		</g>
		<text transform="matrix(1 0 0 1 120.0745 225.022)" class="st2 st3">profileCity</text>
		<g>
			<path d="M231.2,240.8v35.5H60.8v-35.5H231.2 M232,240H60v37h172V240L232,240z"/>
		</g>
		<text transform="matrix(1 0 0 1 116.1023 262.022)" class="st2 st3">profileEmail</text>
		<g>
			<path d="M231.2,277.8v35.5H60.8v-35.5H231.2 M232,277H60v37h172V277L232,277z"/>
		</g>
		<text transform="matrix(1 0 0 1 117.26 299.022)" class="st2 st3">profileHash</text>
		<g>
			<path d="M231.2,314.8v35.5H60.8v-35.5H231.2 M232,314H60v37h172V314L232,314z"/>
		</g>
		<text transform="matrix(1 0 0 1 114.0803 336.022)" class="st2 st3">profileImage</text>
		<g>
			<path d="M231.2,351.8v35.5H60.8v-35.5H231.2 M232,351H60v37h172V351L232,351z"/>
		</g>
		<text transform="matrix(1 0 0 1 114.9202 373.022)" class="st2 st3">profileName</text>
		<g>
			<path d="M231.2,388.8v35.5H60.8v-35.5H231.2 M232,388H60v37h172V388L232,388z"/>
		</g>
		<text transform="matrix(1 0 0 1 116.9421 410.022)" class="st2 st3">profileState</text>
		<g>
			<path d="M231.2,425.8v35.5H60.8v-35.5H231.2 M232,425H60v37h172V425L232,425z"/>
		</g>
		<text transform="matrix(1 0 0 1 104.3123 447.022)" class="st2 st3">profileUsername</text>
		<g>
			<path d="M231.2,462.8v35.5H60.8v-35.5H231.2 M232,462H60v37h172V462L232,462z"/>
		</g>
		<text transform="matrix(1 0 0 1 106.3167 484.022)" class="st2 st3">profileUserType</text>
		<g>
			<path d="M231.2,499.8v35.5H60.8v-35.5H231.2 M232,499H60v37h172V499L232,499z"/>
		</g>
		<text transform="matrix(1 0 0 1 121.634 521.022)" class="st2 st3">profileZip</text>
	</g>
	<g>
		<path d="M305,447c-9.5,0-19.1-19.3-29.1-59c-7.8-31-15.9-74.1-24-128.3C238.2,167.4,229.1,74,229,73.1c0-0.3,0.1-0.6,0.3-0.9
			c0.2-0.2,0.6-0.3,0.9-0.2c1.2,0.3,28.8,7.4,28.8,22c0,13.3,22.8,16.1,45,17c0.6,0,1,0.5,1,1c0,0.6-0.5,1-1,1c-24.4-1-47-4-47-19
			c0-11.3-20.3-18-25.9-19.6c1.2,12.2,9.9,99.1,22.7,185C276.7,412.8,294.3,445,305,445c0.6,0,1,0.4,1,1S305.6,447,305,447z"/>
	</g>
	<g>
		<path d="M478.2,417.2c-0.6,0-1-0.4-1-1s0.4-1,1-1c19,0,29.2-15.1,29.2-29.2V105.5c0-16.7-33.6-33.4-33.9-33.6
			c-0.4-0.2-0.6-0.7-0.5-1.1c0.1-0.5,0.5-0.8,1-0.8l73,1c0.6,0,1,0.5,1,1c0,0.6-0.5,1-1,1l-68.8-0.9c9,5,31.4,18.8,31.4,33.4V386
			C509.5,401.1,498.5,417.2,478.2,417.2z"/>
	</g>
	<g>
		<path d="M721,234v-2c16.9,0,35-9.2,35-35v-45c0-24.4-14.2-39-38-39v-2c24.7,0,40,15.7,40,41v45C758,219.5,743.5,234,721,234z"/>
	</g>
	<text transform="matrix(1 0 0 1 290 457)" class="st2 st3">M</text>
	<text transform="matrix(1 0 0 1 480 408)" class="st2 st3">M</text>
	<text transform="matrix(1 0 0 1 290 106)" class="st2 st3">M</text>
	<text transform="matrix(1 0 0 1 535 67)" class="st2 st3">M</text>
</g>
<g id="Layer_2">
	<text transform="matrix(1 0 0 1 723 106)" class="st2 st3">M</text>
	<text transform="matrix(1 0 0 1 234 69)" class="st2 st4">1</text>
	<text transform="matrix(1 0 0 1 247 144)" class="st2 st4">1</text>
	<text transform="matrix(1 0 0 1 490 108)" class="st2 st4">1</text>
	<text transform="matrix(1 0 0 1 735 215)" class="st2 st4">1</text>
	<text transform="matrix(1 0 0 1 488 62)" class="st2 st4">1</text>
</g>
</svg>
