<svg id="Layer_1" data-name="Layer 1" xmlns="http://www.w3.org/2000/svg" viewBox="0 0 698 517"><defs><style>.cls-1,.cls-10,.cls-11,.cls-2,.cls-3,.cls-4,.cls-5,.cls-6,.cls-7,.cls-8,.cls-9{isolation:isolate;}.cls-1{font-size:18px;font-family:Helvetica-Bold, Helvetica;font-weight:700;}.cls-10,.cls-11,.cls-3,.cls-4,.cls-5,.cls-6,.cls-7,.cls-8,.cls-9{font-size:12px;}.cls-10,.cls-3,.cls-4,.cls-5,.cls-6,.cls-7,.cls-8,.cls-9{font-family:ArialMT, Arial;}.cls-3{letter-spacing:-0.01em;}.cls-5{letter-spacing:-0.04em;}.cls-6{letter-spacing:-0.03em;}.cls-7{letter-spacing:-0.06em;}.cls-8{letter-spacing:0.01em;}.cls-9{letter-spacing:-0.06em;}.cls-10{letter-spacing:-0.07em;}.cls-11{font-family:Helvetica, Helvetica;}</style></defs><title>phpBeerErd</title><path d="M415,337v33H247V337H415m2-2H245v37H417Z"/><path d="M416.25,371.75v35.5H245.75v-35.5h170.5M417,371H245v37H417Z"/><text class="cls-1" transform="translate(312.49 356.91)">vote</text><g class="cls-2"><text class="cls-3" transform="translate(303.86 393.02)">v</text><text class="cls-4" transform="translate(309.51 393.02)">o</text><text class="cls-3" transform="translate(316.1 393.02)">t</text><text class="cls-4" transform="translate(320 393.02)">e</text><text class="cls-4" transform="translate(326.01 393.02)">B</text><text class="cls-4" transform="translate(332.56 393.02)">eerId</text></g><path d="M416.25,408.75v35.5H245.75v-35.5h170.5M417,408H245v37H417Z"/><g class="cls-2"><text class="cls-3" transform="translate(299.25 430.02)">v</text><text class="cls-4" transform="translate(304.9 430.02)">o</text><text class="cls-3" transform="translate(311.49 430.02)">t</text><text class="cls-4" transform="translate(315.39 430.02)">e</text><text class="cls-5" transform="translate(321.4 430.02)">P</text><text class="cls-3" transform="translate(327.59 430.02)">r</text><text class="cls-4" transform="translate(331.4 430.02)">ofileId</text></g><path d="M416.25,445.75v35.5H245.75v-35.5h170.5M417,445H245v37H417Z"/><g class="cls-2"><text class="cls-3" transform="translate(306.15 467.02)">v</text><text class="cls-4" transform="translate(311.8 467.02)">o</text><text class="cls-3" transform="translate(318.39 467.02)">t</text><text class="cls-4" transform="translate(322.29 467.02)">e</text><text class="cls-6" transform="translate(328.3 467.02)">V</text><text class="cls-4" transform="translate(334.6 467.02)">alue</text></g><path d="M414,2V35H246V2H414m2-2H244V37H416Z"/><path d="M415.25,36.75v35.5H244.75V36.75h170.5M416,36H244V73H416Z"/><text class="cls-1" transform="matrix(1, 0.01, -0.01, 1, 310.92, 21.75)">beer</text><text class="cls-4" transform="translate(313.79 58.02)">beerId</text><path d="M415.25,73.75v35.5H244.75V73.75h170.5M416,73H244v37H416Z"/><g class="cls-2"><text class="cls-4" transform="translate(297.94 95.02)">beer</text><text class="cls-5" transform="translate(320.72 95.02)">P</text><text class="cls-3" transform="translate(326.91 95.02)">r</text><text class="cls-4" transform="translate(330.71 95.02)">ofileId</text></g><path d="M415.25,110.75v35.5H244.75v-35.5h170.5M416,110H244v37H416Z"/><g class="cls-2"><text class="cls-4" transform="translate(308.7 132.02)">beer</text><text class="cls-7" transform="translate(331.48 132.02)">A</text><text class="cls-3" transform="translate(338.78 132.02)">b</text><text class="cls-4" transform="translate(345.53 132.02)">v</text></g><path d="M415.25,147.75v35.5H244.75v-35.5h170.5M416,147H244v37H416Z"/><g class="cls-2"><text class="cls-4" transform="translate(289.7 169.02)">beer</text><text class="cls-4" transform="translate(312.48 169.02)">D</text><text class="cls-4" transform="translate(320.52 169.02)">esc</text><text class="cls-4" transform="translate(336.66 169.02)">r</text><text class="cls-4" transform="translate(340.63 169.02)">iption</text></g><path d="M415.25,184.75v35.5H244.75v-35.5h170.5M416,184H244v37H416Z"/><g class="cls-2"><text class="cls-4" transform="translate(310.4 206.02)">beer</text><text class="cls-8" transform="translate(333.18 206.02)">I</text><text class="cls-4" transform="translate(336.16 206.02)">bu</text></g><path d="M415.25,221.75v35.5H244.75v-35.5h170.5M416,221H244v37H416Z"/><text class="cls-4" transform="translate(303.76 243.02)">beerName</text><path d="M658,2V35H490V2H658m2-2H488V37H660Z"/><path d="M659.25,36.75v35.5H488.75V36.75h170.5M660,36H488V73H660Z"/><text class="cls-1" transform="translate(533.48 21.91)">beerStyle</text><g class="cls-2"><text class="cls-4" transform="translate(534.32 58.02)">beer</text><text class="cls-4" transform="translate(557.1 58.02)">S</text><text class="cls-8" transform="translate(562.98 58.02)">t</text><text class="cls-4" transform="translate(567.06 58.02)">yle</text><text class="cls-4" transform="translate(581.55 58.02)">B</text><text class="cls-4" transform="translate(588.1 58.02)">eerId</text></g><path d="M659.25,73.75v35.5H488.75V73.75h170.5M660,73H488v37H660Z"/><g class="cls-2"><text class="cls-4" transform="translate(533.34 95.02)">beer</text><text class="cls-4" transform="translate(556.12 95.02)">S</text><text class="cls-8" transform="translate(562 95.02)">t</text><text class="cls-4" transform="translate(566.08 95.02)">yle</text><text class="cls-4" transform="translate(580.57 95.02)">S</text><text class="cls-8" transform="translate(586.45 95.02)">t</text><text class="cls-4" transform="translate(590.53 95.02)">yleId</text></g><path d="M661,198v33H493V198H661m2-2H491v37H663Z"/><path d="M662.25,232.75v35.5H491.75v-35.5h170.5M663,232H491v37H663Z"/><text class="cls-1" transform="translate(556.49 217.91)">style</text><g class="cls-2"><text class="cls-4" transform="translate(560.52 254.02)">s</text><text class="cls-8" transform="translate(565.27 254.02)">t</text><text class="cls-4" transform="translate(569.35 254.02)">yleId</text></g><path d="M662.25,269.75v35.5H491.75v-35.5h170.5M663,269H491v37H663Z"/><g class="cls-2"><text class="cls-4" transform="translate(553.55 291.02)">s</text><text class="cls-8" transform="translate(558.3 291.02)">t</text><text class="cls-4" transform="translate(562.38 291.02)">yl</text><text class="cls-6" transform="translate(570.87 291.02)">e</text><text class="cls-9" transform="translate(576.48 291.02)">T</text><text class="cls-4" transform="translate(581.97 291.02)">ype</text></g><path d="M170,2V35H2V2H170m2-2H0V37H172Z"/><path d="M171.25,36.75v35.5H.75V36.75h170.5M172,36H0V73H172Z"/><text class="cls-1" transform="translate(58.5 21.91)">profile</text><g class="cls-2"><text class="cls-4" transform="translate(65.01 58.02)">p</text><text class="cls-3" transform="translate(71.84 58.02)">r</text><text class="cls-4" transform="translate(75.64 58.02)">ofileId</text></g><path d="M171.25,73.75v35.5H.75V73.75h170.5M172,73H0v37H172Z"/><g class="cls-2"><text class="cls-4" transform="translate(54.18 95.02)">p</text><text class="cls-3" transform="translate(61.01 95.02)">r</text><text class="cls-4" transform="translate(64.81 95.02)">ofile</text><text class="cls-7" transform="translate(86.52 95.02)">A</text><text class="cls-4" transform="translate(93.83 95.02)">bout</text></g><path d="M171.25,110.75v35.5H.75v-35.5h170.5M172,110H0v37H172Z"/><g class="cls-2"><text class="cls-4" transform="translate(36.15 132.02)">p</text><text class="cls-3" transform="translate(42.98 132.02)">r</text><text class="cls-4" transform="translate(46.78 132.02)">ofile</text><text class="cls-10" transform="translate(68.49 132.02)">A</text><text class="cls-4" transform="translate(75.69 132.02)">dd</text><text class="cls-3" transform="translate(89.23 132.02)">r</text><text class="cls-4" transform="translate(93.03 132.02)">essLine1</text></g><path d="M171.25,147.75v35.5H.75v-35.5h170.5M172,147H0v37H172Z"/><g class="cls-2"><text class="cls-4" transform="translate(36.15 169.02)">p</text><text class="cls-3" transform="translate(42.98 169.02)">r</text><text class="cls-4" transform="translate(46.78 169.02)">ofile</text><text class="cls-10" transform="translate(68.49 169.02)">A</text><text class="cls-4" transform="translate(75.69 169.02)">dd</text><text class="cls-3" transform="translate(89.23 169.02)">r</text><text class="cls-4" transform="translate(93.03 169.02)">essLine2</text></g><path d="M171.25,184.75v35.5H.75v-35.5h170.5M172,184H0v37H172Z"/><g class="cls-2"><text class="cls-4" transform="translate(60.1 206.02)">p</text><text class="cls-3" transform="translate(66.93 206.02)">r</text><text class="cls-4" transform="translate(70.73 206.02)">ofile</text><text class="cls-4" transform="translate(92.44 206.02)">C</text><text class="cls-4" transform="translate(99.36 206.02)">i</text><text class="cls-8" transform="translate(102.17 206.02)">t</text><text class="cls-4" transform="translate(106.25 206.02)">y</text></g><path d="M171.25,221.75v35.5H.75v-35.5h170.5M172,221H0v37H172Z"/><g class="cls-2"><text class="cls-4" transform="translate(56.16 243.02)">p</text><text class="cls-3" transform="translate(62.99 243.02)">r</text><text class="cls-4" transform="translate(66.79 243.02)">ofileEmail</text></g><path d="M171.25,258.75v35.5H.75v-35.5h170.5M172,258H0v37H172Z"/><g class="cls-2"><text class="cls-4" transform="translate(57.32 280.02)">p</text><text class="cls-3" transform="translate(64.15 280.02)">r</text><text class="cls-4" transform="translate(67.95 280.02)">ofileHash</text></g><path d="M171.25,295.75v35.5H.75v-35.5h170.5M172,295H0v37H172Z"/><g class="cls-2"><text class="cls-4" transform="translate(54.08 317.02)">p</text><text class="cls-3" transform="translate(60.91 317.02)">r</text><text class="cls-4" transform="translate(64.71 317.02)">ofile</text><text class="cls-8" transform="translate(86.42 317.02)">I</text><text class="cls-4" transform="translate(89.41 317.02)">mage</text></g><path d="M171.25,332.75v35.5H.75v-35.5h170.5M172,332H0v37H172Z"/><g class="cls-2"><text class="cls-4" transform="translate(54.98 354.02)">p</text><text class="cls-3" transform="translate(61.81 354.02)">r</text><text class="cls-4" transform="translate(65.61 354.02)">ofileName</text></g><path d="M171.25,369.75v35.5H.75v-35.5h170.5M172,369H0v37H172Z"/><g class="cls-2"><text class="cls-4" transform="translate(57.08 391.02)">p</text><text class="cls-3" transform="translate(63.91 391.02)">r</text><text class="cls-4" transform="translate(67.71 391.02)">ofile</text><text class="cls-4" transform="translate(89.42 391.02)">S</text><text class="cls-4" transform="translate(95.3 391.02)">t</text><text class="cls-4" transform="translate(99.27 391.02)">a</text><text class="cls-3" transform="translate(105.01 391.02)">t</text><text class="cls-4" transform="translate(108.91 391.02)">e</text></g><path d="M171.25,406.75v35.5H.75v-35.5h170.5M172,406H0v37H172Z"/><g class="cls-2"><text class="cls-4" transform="translate(44.38 428.02)">p</text><text class="cls-3" transform="translate(51.21 428.02)">r</text><text class="cls-4" transform="translate(55.01 428.02)">ofile</text><text class="cls-3" transform="translate(76.72 428.02)">U</text><text class="cls-4" transform="translate(84.41 428.02)">se</text><text class="cls-4" transform="translate(95.18 428.02)">r</text><text class="cls-4" transform="translate(99.15 428.02)">name</text></g><path d="M171.25,443.75v35.5H.75v-35.5h170.5M172,443H0v37H172Z"/><g class="cls-2"><text class="cls-4" transform="translate(46.74 465.02)">p</text><text class="cls-3" transform="translate(53.57 465.02)">r</text><text class="cls-4" transform="translate(57.37 465.02)">ofile</text><text class="cls-3" transform="translate(79.08 465.02)">U</text><text class="cls-4" transform="translate(86.77 465.02)">se</text><text class="cls-3" transform="translate(97.54 465.02)">r</text><text class="cls-9" transform="translate(101.29 465.02)">T</text><text class="cls-4" transform="translate(106.78 465.02)">ype</text></g><path d="M171.25,480.75v35.5H.75v-35.5h170.5M172,480H0v37H172Z"/><g class="cls-2"><text class="cls-4" transform="translate(61.69 502.02)">p</text><text class="cls-3" transform="translate(68.52 502.02)">r</text><text class="cls-4" transform="translate(72.32 502.02)">ofileZip</text></g><path d="M245,428c-9.54,0-19.08-19.31-29.14-59-7.85-31-15.91-74.14-24-128.31C178.17,148.44,169.09,55,169,54.1A1,1,0,0,1,170.24,53c1.18.29,28.76,7.36,28.76,22,0,13.33,22.77,16.07,45,17a1,1,0,0,1-.08,2c-24.39-1-47-4-47-19,0-11.34-20.32-18-25.86-19.65,1.2,12.2,10,99.13,22.73,185C216.7,393.79,234.27,426,245,426a1,1,0,0,1,0,2Z"/><path d="M418.25,398.25a1,1,0,0,1,0-2c19,0,29.25-15.07,29.25-29.25V86.5c0-16.68-33.6-33.44-33.94-33.6A1,1,0,0,1,414,51l73,1a1,1,0,0,1,0,2l-68.85-.94c9,5,31.36,18.84,31.36,33.44V367C449.5,382.15,438.55,398.25,418.25,398.25Z"/><path d="M661,215v-2c16.93,0,35-9.2,35-35V133c0-24.42-14.21-39-38-39V92c24.67,0,40,15.71,40,41v45C698,200.48,683.47,215,661,215Z"/><text class="cls-11" transform="translate(230 438)">M</text><text class="cls-11" transform="translate(420 389)">M</text><text class="cls-11" transform="translate(230 87)">M</text><text class="cls-11" transform="translate(475 48)">M</text><text class="cls-11" transform="translate(663 87)">M</text></svg>